# xmcd
#
# Track frame offsets: 
#        150
#        16500
#        37595
#        51375
#        73645
#        93715
#        112495
#        138095
#        160985
#        184675
#        203540
#        222010
#
# Disc length: 3380 seconds
#
# Revision: 0
# Processed by: cddbd v1.4PL0 Copyright (c) Steve Scherf et al.
# Submitted via: ExactAudioCopy v0.90b4
#
DISCID=9f0d320c
DTITLE=Van Morrison - From Dublin Up To Sandy Row, disc 1
DYEAR=1995
DGENRE=Celtic
TTITLE0=Ain't That Loving You Baby ?
TTITLE1=No Religion
TTITLE2=Days Like This
TTITLE3=Raincheck
TTITLE4=That's Life
TTITLE5=Wonderful Remark
TTITLE6=Saint Dominic's Preview
TTITLE7=Listen To The Lion
TTITLE8=Slim Slow Slider
TTITLE9=Vanlose Stairway > Trans-Euro Train
TTITLE10=Irish Heartbeat
TTITLE11=Ballerina
EXTD=
EXTT0=
EXTT1=
EXTT2=
EXTT3=
EXTT4=
EXTT5=
EXTT6=
EXTT7=
EXTT8=
EXTT9=
EXTT10=
EXTT11=
PLAYORDER=
